<?xml version="1.0" encoding="utf-8"?>
<!-- Generator: Adobe Illustrator 17.0.0, SVG Export Plug-In . SVG Version: 6.00 Build 0)  -->
<!DOCTYPE svg PUBLIC "-//W3C//DTD SVG 1.1//EN" "http://www.w3.org/Graphics/SVG/1.1/DTD/svg11.dtd">
<svg version="1.1" id="Layer_1" xmlns="http://www.w3.org/2000/svg" xmlns:xlink="http://www.w3.org/1999/xlink" x="0px" y="0px"
	 width="52.001px" height="64.258px" viewBox="0 0 52.001 64.258" enable-background="new 0 0 52.001 64.258" xml:space="preserve">

<g>
		<path fill="#919192" d="M7.207,64.258c-2.108,0-3.563-0.478-4.578-1.505c-1.025-1.038-1.49-2.521-1.463-4.666
			c0.074-5.906,0.083-10.503,0.09-14.949c0.008-4.531,0.017-9.217,0.095-15.261c0.023-1.757,1.433-3.662,2.726-4.42
			c3.354-1.965,7.523-3.862,11.555-5.697c2.829-1.288,5.501-2.504,7.829-3.707c1.384-0.714,3.727-0.701,5.123,0.022
			c2.165,1.123,4.646,2.248,7.272,3.439c4.105,1.863,8.35,3.789,11.717,5.87c1.824,1.128,3.009,3.787,3.101,5.705
			c0.193,4.034,0.175,5.443,0.144,7.776c-0.014,1.077-0.031,2.36-0.031,4.207l-0.013,1.5c-0.002,1.188-0.007,2.377-0.011,3.565
			c-0.015,3.963-0.031,8.061,0.042,12.081c0.036,2-0.437,3.472-1.445,4.499c-1.009,1.027-2.479,1.527-4.493,1.527
			c-5.625-0.026-12.372-0.044-19.099-0.044c-7.1,0-13.481,0.02-18.454,0.057H7.207z M25.981,16.506
			c-0.541,0-0.945,0.109-1.143,0.212c-2.394,1.238-5.1,2.469-7.964,3.772c-3.963,1.803-8.06,3.668-11.281,5.555
			c-0.593,0.347-1.237,1.395-1.243,1.871C4.272,33.943,4.264,38.62,4.256,43.144c-0.008,4.454-0.016,9.059-0.09,14.981
			c-0.016,1.254,0.186,2.103,0.598,2.52c0.408,0.413,1.207,0.613,2.442,0.613l0,1.5l0.083-1.5c4.98-0.037,11.369-0.057,18.477-0.057
			c6.732,0,13.484,0.018,19.054,0.044h0.001c1.195,0,1.986-0.212,2.396-0.63c0.409-0.417,0.606-1.205,0.586-2.342
			c-0.074-4.053-0.058-8.167-0.042-12.147c0.006-1.684,0.013-3.369,0.013-5.053l0.016-1.5c0.006-1.105,0.017-1.978,0.027-2.746
			c0.031-2.354,0.048-3.651-0.141-7.594c-0.055-1.152-0.904-2.816-1.682-3.297c-3.204-1.981-7.36-3.866-11.379-5.69
			c-2.663-1.208-5.179-2.35-7.414-3.508C26.986,16.626,26.551,16.506,25.981,16.506z"/>
		<path fill="#919192" d="M2.502,19.746c-0.912,0-1.791-0.501-2.231-1.369c-0.625-1.231-0.133-2.736,1.098-3.361L22.148,4.469
			c2.398-1.348,5.26-1.382,7.687-0.09l20.742,9.893c1.246,0.595,1.775,2.087,1.18,3.333c-0.595,1.247-2.088,1.771-3.333,1.181
			L27.628,8.867c-0.04-0.02-0.079-0.039-0.117-0.061c-0.912-0.495-2.037-0.482-2.936,0.035c-0.037,0.021-0.074,0.041-0.112,0.061
			L3.632,19.474C3.27,19.658,2.883,19.746,2.502,19.746z"/>
		<circle fill="#919192" cx="26.001" cy="41.597" r="12.547"/>

</g>
</svg>
