<?xml version="1.0" encoding="utf-8"?>
<!-- Generator: Adobe Illustrator 17.0.0, SVG Export Plug-In . SVG Version: 6.00 Build 0)  -->
<!DOCTYPE svg PUBLIC "-//W3C//DTD SVG 1.1//EN" "http://www.w3.org/Graphics/SVG/1.1/DTD/svg11.dtd">
<svg version="1.1" id="Layer_1" xmlns="http://www.w3.org/2000/svg" xmlns:xlink="http://www.w3.org/1999/xlink" x="0px" y="0px"
	 width="52.001px" height="64.258px" viewBox="0 0 52.001 64.258" enable-background="new 0 0 52.001 64.258" xml:space="preserve">
<g display="none">
	<path display="inline" fill="#FFFFFF" d="M7.29,27.767L3.471,43.995c-0.668,2.842,0.774,5.801,3.43,7.037
		c4.389,2.04,12.09,4.471,23.851,4.471c11.709,0,19.389-2.411,23.77-4.434c2.701-1.248,4.131-4.248,3.402-7.134l-3.949-15.622
		c-3.055,1.715-10.012,4.464-23.223,4.464C17.694,32.778,10.462,29.652,7.29,27.767z"/>
	<g display="inline">
		<g>
			<path fill="#919192" d="M30.751,58.503c-12.309,0-20.452-2.584-25.115-4.751c-3.939-1.832-6.079-6.225-5.085-10.444l4.324-18.374
				c0.122-0.519,0.511-0.935,1.021-1.09c0.508-0.157,1.063-0.031,1.457,0.332c0.055,0.049,6.434,5.602,23.399,5.602
				c17.396,0,23.084-4.947,23.14-4.997c0.391-0.352,0.942-0.479,1.446-0.327c0.503,0.153,0.895,0.553,1.024,1.062l4.47,17.683
				c1.083,4.286-1.042,8.741-5.052,10.592C51.125,55.942,43.005,58.503,30.751,58.503z M7.29,27.767L3.471,43.995
				c-0.668,2.842,0.774,5.801,3.43,7.037c4.389,2.04,12.09,4.471,23.851,4.471c11.709,0,19.389-2.411,23.77-4.434
				c2.701-1.248,4.131-4.248,3.402-7.134l-3.949-15.622c-3.055,1.715-10.012,4.464-23.223,4.464
				C17.694,32.778,10.462,29.652,7.29,27.767z"/>
			<g>
				<path fill="#919192" d="M32.24,40.286c-0.187,0-0.387-0.008-0.598-0.016c-0.427-0.017-0.912-0.017-1.339,0
					c-0.21,0.008-0.411,0.016-0.598,0.016c-0.447,0-0.96-0.038-1.377-0.323c-0.45-0.307-0.678-0.818-0.678-1.518
					c0-1.832,1.491-3.322,3.322-3.322c1.832,0,3.322,1.491,3.322,3.322C34.294,40.286,32.748,40.286,32.24,40.286z"/>
				<path fill="#919192" d="M21.182,44.62c-0.452,0-0.874-0.205-1.291-0.627c-0.623-0.631-0.963-1.468-0.958-2.355
					c0.006-0.887,0.357-1.719,0.988-2.343c0.626-0.618,1.454-0.958,2.333-0.958c0.896,0,1.735,0.351,2.364,0.988
					c0.423,0.428,0.622,0.859,0.61,1.318c-0.02,0.753-0.601,1.284-1.217,1.845c-0.157,0.144-0.324,0.295-0.488,0.457
					c-0.165,0.163-0.318,0.327-0.464,0.483C22.487,44.041,21.945,44.62,21.182,44.62z"/>
				<path fill="#919192" d="M40.321,44.62c-0.762,0-1.305-0.579-1.879-1.192c-0.146-0.156-0.299-0.32-0.464-0.483
					c-0.165-0.163-0.331-0.314-0.489-0.458c-0.615-0.561-1.196-1.091-1.216-1.844c-0.012-0.459,0.188-0.89,0.61-1.318
					c0.629-0.638,1.469-0.988,2.364-0.988c0.879,0,1.708,0.34,2.333,0.958c0.632,0.623,0.983,1.455,0.988,2.343
					c0.006,0.887-0.334,1.724-0.958,2.355C41.196,44.415,40.773,44.62,40.321,44.62z"/>
				<path fill="#919192" d="M34.47,52.498c-0.509,0-1.042-0.017-1.607-0.036c-1.22-0.04-2.561-0.04-3.782,0
					c-0.565,0.018-1.098,0.036-1.607,0.036c-1.068,0-2.283-0.069-3.189-0.586c-0.941-0.536-1.398-1.435-1.398-2.748
					c0-3.72,3.627-6.747,8.085-6.747s8.085,3.027,8.085,6.747C39.057,52.102,36.738,52.498,34.47,52.498z"/>
			</g>
			<path fill="#919192" d="M30.752,28.576c-8.866,0-23.871-1.501-23.871-7.127c0-5.627,15.005-7.128,23.871-7.128
				s23.871,1.501,23.871,7.128C54.623,27.075,39.618,28.576,30.752,28.576z M30.752,17.467c-12.82,0-20.309,2.612-20.729,4.014
				c0.42,1.336,7.91,3.948,20.729,3.948s20.308-2.612,20.729-4.013C51.061,20.08,43.572,17.467,30.752,17.467z"/>
		</g>
	</g>
	<path display="inline" fill="#FFFFFF" d="M30.752,17.467c-12.82,0-20.309,2.612-20.729,4.014c0.42,1.336,7.91,3.948,20.729,3.948
		s20.308-2.612,20.729-4.013C51.061,20.08,43.572,17.467,30.752,17.467z"/>
</g>
<g display="none">
	<path display="inline" fill="#FFFFFF" d="M32.964,56.176h-5.125C6.246,56.176,3.023,43.61,3.023,36.12
		c0-9.391,1.444-27.139,2.929-29.397c0.832,0.163,2.958,1.916,4.532,3.212c3.523,2.903,7.908,6.516,12.077,6.516H37.62
		c-1.665,2.768-3.224,8.261-1.672,12.223c1.909,4.872,6.825,6.875,12,6.875c4.662,0,7.738-2.323,9.739-4.243
		c0.06,1.731,0.093,3.363,0.093,4.814C57.781,43.61,54.557,56.176,32.964,56.176z"/>
	<g display="inline">
		<ellipse fill="#919192" cx="18.278" cy="27.635" rx="2.886" ry="3.067"/>
		<path fill="#919192" d="M36.759,45.052c-2.199,0-4.153-1.134-5.357-2.873c-1.204,1.739-3.158,2.873-5.357,2.873
			c-3.65,0-6.621-3.121-6.621-6.957c0-0.698,0.565-1.264,1.264-1.264s1.264,0.566,1.264,1.264c0,2.443,1.836,4.43,4.093,4.43
			s4.093-1.987,4.093-4.43c0-0.698,0.565-1.264,1.264-1.264c0.698,0,1.264,0.566,1.264,1.264c0,2.443,1.836,4.43,4.093,4.43
			s4.093-1.987,4.093-4.43c0-0.698,0.565-1.264,1.264-1.264c0.698,0,1.264,0.566,1.264,1.264
			C43.38,41.931,40.409,45.052,36.759,45.052z"/>
		<path fill="#919192" d="M56.485,4.758c-0.411-0.376-0.932-0.576-1.504-0.576c-0.063,0-0.128,0.018-0.192,0.023
			c-0.012-0.006-0.024-0.018-0.036-0.023c-0.733-0.28-1.777,0.421-3.045,1.543c-0.795,0.611-1.664,1.368-2.641,2.224
			c-2.107,1.845-4.572,4-6.974,5.15c-0.249,0.085-1.47,0.475-1.816,0.661c-0.441,0.104-0.877,0.163-1.303,0.163H22.56
			c-3.262,0-7.258-3.293-10.469-5.939C9.413,5.777,7.478,4.183,5.838,4.183c-0.582,0-1.108,0.199-1.519,0.576
			C1.255,7.568,0.496,32.648,0.496,36.12c0,14.352,9.966,22.584,27.344,22.584h5.125c17.377,0,27.344-8.231,27.344-22.584
			C60.308,32.647,59.549,7.566,56.485,4.758z M32.964,56.176h-5.125C6.246,56.176,3.023,43.61,3.023,36.12
			c0-9.391,1.444-27.139,2.929-29.397c0.832,0.163,2.958,1.916,4.532,3.212c3.523,2.903,7.908,6.516,12.077,6.516H37.62
			c-1.665,2.768-3.224,8.261-1.672,12.223c1.909,4.872,6.825,6.875,12,6.875c4.662,0,7.738-2.323,9.739-4.243
			c0.06,1.731,0.093,3.363,0.093,4.814C57.781,43.61,54.557,56.176,32.964,56.176z"/>
		<ellipse fill="#FFFFFF" cx="43.661" cy="27.376" rx="2.886" ry="3.067"/>
	</g>
	<ellipse display="inline" fill="#FFFFFF" cx="43.661" cy="27.376" rx="2.886" ry="3.067"/>
</g>
<g display="none">
	<path display="inline" fill="#FFFFFF" d="M32.964,55.855h-5.125c-21.593,0-24.816-12.566-24.816-20.056
		c0-9.391,1.444-27.139,2.929-29.397c0.832,0.163,2.958,1.916,4.532,3.212c3.523,2.903,7.908,6.516,12.077,6.516H37.62
		c-1.665,2.768-3.224,8.261-1.672,12.223c1.909,4.872,6.825,6.875,12,6.875c4.662,0,7.738-2.323,9.739-4.243
		c0.06,1.731,0.093,3.363,0.093,4.814C57.781,43.289,54.557,55.855,32.964,55.855z"/>
	<g display="inline">
		<ellipse fill="#EF9E2D" cx="18.278" cy="27.314" rx="2.886" ry="3.067"/>
		<path fill="#EF9E2D" d="M36.759,44.732c-2.199,0-4.153-1.134-5.357-2.873c-1.204,1.739-3.158,2.873-5.357,2.873
			c-3.65,0-6.621-3.121-6.621-6.957c0-0.698,0.565-1.264,1.264-1.264c0.698,0,1.264,0.566,1.264,1.264
			c0,2.443,1.836,4.43,4.093,4.43s4.093-1.987,4.093-4.43c0-0.698,0.565-1.264,1.264-1.264s1.264,0.566,1.264,1.264
			c0,2.443,1.836,4.43,4.093,4.43s4.093-1.987,4.093-4.43c0-0.698,0.565-1.264,1.264-1.264c0.698,0,1.264,0.566,1.264,1.264
			C43.38,41.611,40.409,44.732,36.759,44.732z"/>
		<path fill="#EF9E2D" d="M56.485,4.438c-0.411-0.376-0.932-0.576-1.504-0.576c-0.063,0-0.128,0.018-0.192,0.023
			c-0.012-0.006-0.024-0.018-0.036-0.023c-0.733-0.28-1.777,0.421-3.045,1.543c-0.795,0.611-1.664,1.368-2.641,2.224
			c-2.107,1.845-4.572,4-6.974,5.15c-0.249,0.085-1.47,0.475-1.816,0.661c-0.441,0.104-0.877,0.163-1.303,0.163H22.56
			c-3.262,0-7.258-3.293-10.469-5.939C9.413,5.456,7.478,3.862,5.838,3.862c-0.582,0-1.108,0.199-1.519,0.576
			c-3.064,2.809-3.823,27.89-3.823,31.361c0,14.352,9.966,22.584,27.344,22.584h5.125c17.377,0,27.344-8.231,27.344-22.584
			C60.308,32.327,59.549,7.245,56.485,4.438z M32.964,55.855h-5.125c-21.593,0-24.816-12.566-24.816-20.056
			c0-9.391,1.444-27.139,2.929-29.397c0.832,0.163,2.958,1.916,4.532,3.212c3.523,2.903,7.908,6.516,12.077,6.516H37.62
			c-1.665,2.768-3.224,8.261-1.672,12.223c1.909,4.872,6.825,6.875,12,6.875c4.662,0,7.738-2.323,9.739-4.243
			c0.06,1.731,0.093,3.363,0.093,4.814C57.781,43.289,54.557,55.855,32.964,55.855z"/>
		<ellipse fill="#FFFFFF" cx="43.661" cy="27.056" rx="2.886" ry="3.067"/>
		<path fill="#EF9E2D" d="M37.174,44.065c0.642,0-0.932,4.139-5.825,4.139c-5.647,0-6.568-4.323-5.43-4.323
			c2.665,0,5.362-2.621,5.362-2.621S34.36,44.065,37.174,44.065z"/>
	</g>
	<ellipse display="inline" fill="#FFFFFF" cx="43.661" cy="27.056" rx="2.886" ry="3.067"/>
</g>
<g display="none">
	<path display="inline" fill="#FFFFFF" d="M6.979,28.165L3.16,44.393c-0.669,2.841,0.774,5.8,3.431,7.036
		c4.387,2.04,12.087,4.472,23.852,4.472c11.709,0,19.391-2.411,23.771-4.435c2.701-1.248,4.132-4.248,3.402-7.133l-3.949-15.622
		c-3.056,1.716-10.012,4.465-23.225,4.465C17.384,33.176,10.152,30.05,6.979,28.165z"/>
	<g display="inline">
		<g>
			<path fill="#EF9E2D" d="M30.442,58.901c-12.313,0-20.455-2.584-25.117-4.751c-3.939-1.832-6.078-6.225-5.085-10.444l4.324-18.374
				c0.122-0.519,0.511-0.935,1.021-1.09c0.511-0.158,1.065-0.03,1.457,0.332c0.055,0.049,6.434,5.602,23.4,5.602
				c17.397,0,23.086-4.948,23.142-4.998c0.39-0.353,0.945-0.48,1.445-0.327c0.504,0.153,0.896,0.553,1.024,1.062l4.471,17.683
				c1.083,4.285-1.042,8.74-5.053,10.592C50.817,56.339,42.696,58.901,30.442,58.901z M6.979,28.165L3.16,44.393
				c-0.669,2.841,0.774,5.8,3.431,7.036c4.387,2.04,12.087,4.472,23.852,4.472c11.709,0,19.391-2.411,23.771-4.435
				c2.701-1.248,4.132-4.248,3.402-7.133l-3.949-15.622c-3.056,1.716-10.012,4.465-23.225,4.465
				C17.384,33.176,10.152,30.05,6.979,28.165z"/>
			<g>
				<path fill="#EF9E2D" d="M31.931,40.684c-0.187,0-0.387-0.008-0.598-0.016c-0.427-0.017-0.912-0.017-1.339,0
					c-0.21,0.008-0.411,0.016-0.598,0.016c-0.447,0-0.96-0.038-1.377-0.323c-0.45-0.307-0.678-0.818-0.678-1.518
					c0-1.832,1.491-3.322,3.322-3.322c1.832,0,3.322,1.491,3.322,3.322C33.986,40.684,32.439,40.684,31.931,40.684z"/>
				<path fill="#EF9E2D" d="M20.873,45.018c-0.452,0-0.874-0.205-1.291-0.627c-0.623-0.631-0.963-1.468-0.958-2.355
					s0.357-1.719,0.988-2.343c0.626-0.618,1.454-0.958,2.334-0.958c0.896,0,1.735,0.351,2.364,0.988
					c0.423,0.428,0.622,0.859,0.61,1.318c-0.02,0.753-0.601,1.284-1.217,1.845c-0.158,0.144-0.324,0.295-0.488,0.457
					c-0.165,0.163-0.318,0.327-0.464,0.483C22.178,44.439,21.635,45.018,20.873,45.018z"/>
				<path fill="#EF9E2D" d="M40.013,45.018c-0.763,0-1.305-0.579-1.879-1.192c-0.146-0.156-0.299-0.32-0.464-0.483
					c-0.165-0.163-0.331-0.314-0.489-0.458c-0.615-0.561-1.196-1.091-1.216-1.844c-0.012-0.459,0.188-0.89,0.61-1.318
					c0.629-0.638,1.469-0.988,2.364-0.988c0.879,0,1.708,0.34,2.334,0.958c0.632,0.623,0.983,1.455,0.988,2.343
					c0.006,0.887-0.334,1.724-0.958,2.355C40.887,44.813,40.464,45.018,40.013,45.018z"/>
				<path fill="#EF9E2D" d="M34.161,52.896c-0.509,0-1.042-0.017-1.607-0.036c-1.22-0.04-2.562-0.04-3.782,0
					c-0.565,0.018-1.098,0.036-1.607,0.036c-1.068,0-2.283-0.069-3.189-0.586c-0.941-0.536-1.398-1.435-1.398-2.748
					c0-3.72,3.627-6.747,8.085-6.747s8.085,3.027,8.085,6.747C38.748,52.5,36.429,52.896,34.161,52.896z"/>
			</g>
			<path fill="#EF9E2D" d="M30.443,28.973c-8.867,0-23.872-1.501-23.872-7.127c0-5.627,15.006-7.128,23.872-7.128
				s23.872,1.501,23.872,7.128C54.315,27.472,39.309,28.973,30.443,28.973z M30.443,17.865c-12.821,0-20.31,2.612-20.73,4.014
				c0.42,1.336,7.911,3.948,20.73,3.948s20.309-2.612,20.73-4.013C50.753,20.477,43.264,17.865,30.443,17.865z"/>
		</g>
		<path fill="#EF9E2D" d="M52.918,17.219c0-2.791-2.262-5.053-5.053-5.053c-0.156,0-0.303,0.032-0.456,0.046
			c-0.756-3.015-3.475-5.251-6.725-5.251c-1.19,0-2.309,0.3-3.288,0.828C36.65,3.355,33.193,0,29.034,0
			c-3.966,0-7.288,3.053-8.236,7.181c-0.671-0.275-1.405-0.43-2.175-0.43c-3.168,0-5.736,2.568-5.736,5.736
			c0,0.513,0.074,1.008,0.2,1.482c-2.582,0.334-4.584,2.517-4.584,5.189c0,0.475,0.083,0.926,0.201,1.364
			c-0.119,0.254-0.201,0.511-0.201,0.774c0,3.026,8.133,5.52,18.663,5.906c4.431,0.393,5.907,0.247,10.76-0.362
			c8.724-0.76,13.577-2.874,13.577-5.545c0-0.164-0.042-0.325-0.088-0.485C52.342,19.895,52.918,18.625,52.918,17.219z"/>
	</g>
</g>
<g>
	<path display="none" fill="#FFFFFF" d="M25.953,16.507c-0.541,0-0.945,0.109-1.144,0.212c-2.395,1.238-5.1,2.469-7.965,3.772
		c-3.962,1.803-8.06,3.668-11.28,5.555c-0.592,0.347-1.236,1.395-1.242,1.871c-0.078,6.021-0.087,10.694-0.095,15.214
		c-0.008,4.457-0.017,9.066-0.091,14.994c-0.016,1.255,0.186,2.103,0.598,2.52c0.408,0.413,1.207,0.613,2.443,0.613v1.5l0.084-1.5
		c4.947-0.036,11.311-0.056,18.4-0.056c6.758,0,13.539,0.018,19.13,0.043h0.001c1.195,0,1.986-0.212,2.397-0.63
		c0.408-0.417,0.605-1.204,0.585-2.341c-0.073-4.054-0.058-8.168-0.042-12.147c0.006-1.684,0.013-3.369,0.013-5.053l0.016-1.5
		c0.006-1.104,0.018-1.978,0.027-2.746c0.03-2.354,0.048-3.651-0.141-7.594c-0.056-1.152-0.904-2.816-1.683-3.297
		c-3.202-1.98-7.356-3.865-11.374-5.688c-2.665-1.209-5.182-2.351-7.418-3.511C26.957,16.627,26.522,16.507,25.953,16.507z"/>
	<path display="none" fill="#FFFFFF" d="M13.839,30.842c-1.026,1.139-1.639,10.94-1.639,14.775c0,6.548,4.441,10.155,12.506,10.155
		h2.532c8.064,0,12.506-3.606,12.506-10.155c0-3.834-0.612-13.635-1.578-14.767l-0.276,0.021l-0.084-0.032
		c-0.07,0.05-0.273,0.183-0.646,0.514c-0.432,0.335-0.845,0.695-1.309,1.102c-1.106,0.968-2.36,2.065-3.672,2.693l-0.21,0.079
		c-0.17,0.056-0.516,0.166-0.659,0.234l-0.23,0.086c-0.307,0.072-0.592,0.107-0.873,0.107h-8.107c-1.969,0-4.095-1.751-5.804-3.159
		C15.309,31.68,14.291,30.842,13.839,30.842z"/>
	<g>
		<path fill="#EF9E2D" d="M7.178,64.258c-2.108,0-3.563-0.478-4.578-1.505c-1.024-1.038-1.489-2.521-1.463-4.665
			c0.074-5.912,0.083-10.513,0.091-14.962c0.008-4.528,0.017-9.21,0.095-15.249c0.024-1.757,1.434-3.662,2.726-4.419
			c3.354-1.965,7.523-3.862,11.555-5.697c2.829-1.288,5.502-2.504,7.83-3.707c1.382-0.715,3.727-0.702,5.121,0.021
			c2.167,1.124,4.649,2.25,7.277,3.442c4.104,1.862,8.347,3.787,11.713,5.868c1.824,1.127,3.009,3.786,3.101,5.705
			c0.193,4.034,0.175,5.443,0.145,7.777c-0.015,1.076-0.031,2.36-0.031,4.207l-0.014,1.5c-0.002,1.188-0.007,2.376-0.011,3.565
			c-0.016,3.963-0.031,8.061,0.042,12.081c0.036,2-0.437,3.471-1.445,4.498c-1.01,1.027-2.479,1.527-4.493,1.527
			c-5.646-0.025-12.422-0.043-19.175-0.043c-7.083,0-13.437,0.02-18.379,0.056H7.178z M25.953,16.507
			c-0.541,0-0.945,0.109-1.144,0.212c-2.395,1.238-5.1,2.469-7.965,3.772c-3.962,1.803-8.06,3.668-11.28,5.555
			c-0.592,0.347-1.236,1.395-1.242,1.871c-0.078,6.021-0.087,10.694-0.095,15.214c-0.008,4.457-0.017,9.066-0.091,14.994
			c-0.016,1.255,0.186,2.103,0.598,2.52c0.408,0.413,1.207,0.613,2.443,0.613v1.5l0.084-1.5c4.947-0.036,11.311-0.056,18.4-0.056
			c6.758,0,13.539,0.018,19.13,0.043h0.001c1.195,0,1.986-0.212,2.397-0.63c0.408-0.417,0.605-1.204,0.585-2.341
			c-0.073-4.054-0.058-8.168-0.042-12.147c0.006-1.684,0.013-3.369,0.013-5.053l0.016-1.5c0.006-1.104,0.018-1.978,0.027-2.746
			c0.03-2.354,0.048-3.651-0.141-7.594c-0.056-1.152-0.904-2.816-1.683-3.297c-3.202-1.98-7.356-3.865-11.374-5.688
			c-2.665-1.209-5.182-2.351-7.418-3.511C26.957,16.627,26.522,16.507,25.953,16.507z"/>
		<path fill="#EF9E2D" d="M2.502,19.746c-0.912,0-1.791-0.501-2.231-1.369c-0.625-1.231-0.133-2.736,1.098-3.361L22.148,4.47
			c2.398-1.348,5.26-1.382,7.687-0.09l20.742,9.893c1.246,0.595,1.775,2.087,1.18,3.333c-0.595,1.247-2.088,1.771-3.333,1.181
			L27.628,8.868c-0.04-0.02-0.079-0.039-0.117-0.061c-0.912-0.495-2.037-0.482-2.936,0.035c-0.037,0.021-0.074,0.041-0.112,0.061
			L3.632,19.475C3.27,19.659,2.883,19.746,2.502,19.746z"/>
		<circle display="none" fill="#EF9E2D" cx="26.001" cy="41.598" r="12.547"/>
		<g>
			<g>
				<path display="none" fill="#FFFFFF" d="M38.855,30.126c-0.203-0.186-0.46-0.284-0.743-0.284c-0.031,0-0.063,0.009-0.095,0.011
					c-0.006-0.003-0.012-0.009-0.018-0.011c-0.362-0.139-0.878,0.208-1.504,0.762c-0.393,0.302-0.822,0.676-1.304,1.098
					c-1.041,0.911-2.258,1.975-3.445,2.544c-0.123,0.042-0.726,0.235-0.897,0.327c-0.218,0.051-0.433,0.081-0.643,0.081h-8.108
					c-1.611,0-3.585-1.627-5.171-2.933c-1.323-1.09-2.278-1.878-3.089-1.878c-0.288,0-0.547,0.098-0.75,0.284
					c-1.514,1.388-1.888,13.776-1.888,15.49c0,7.089,4.923,11.155,13.506,11.155h2.531c8.583,0,13.506-4.066,13.506-11.155
					C40.744,43.901,40.369,31.513,38.855,30.126z"/>
				<path fill="#EF9E2D" d="M27.238,57.771h-2.532c-9.083,0-14.506-4.544-14.506-12.155c0-0.142,0.13-14.318,2.213-16.228
					c0.386-0.353,0.892-0.547,1.426-0.547c1.171,0,2.242,0.883,3.725,2.106c1.388,1.143,3.284,2.705,4.535,2.705h8.107
					c0.098,0,0.206-0.012,0.323-0.034c0.188-0.081,0.452-0.173,0.812-0.292c1.039-0.493,2.183-1.495,3.192-2.378
					c0.5-0.438,0.946-0.826,1.354-1.139c0.754-0.671,1.495-1.124,2.245-0.969c0.521,0.005,1.018,0.198,1.398,0.546
					c2.084,1.909,2.214,16.087,2.214,16.229C41.744,53.227,36.321,57.771,27.238,57.771z M13.839,30.842
					c-1.026,1.139-1.639,10.94-1.639,14.775c0,6.548,4.441,10.155,12.506,10.155h2.532c8.064,0,12.506-3.606,12.506-10.155
					c0-3.834-0.612-13.635-1.578-14.767l-0.276,0.021l-0.084-0.032c-0.07,0.05-0.273,0.183-0.646,0.514
					c-0.432,0.335-0.845,0.695-1.309,1.102c-1.106,0.968-2.36,2.065-3.672,2.693l-0.21,0.079c-0.17,0.056-0.516,0.166-0.659,0.234
					l-0.23,0.086c-0.307,0.072-0.592,0.107-0.873,0.107h-8.107c-1.969,0-4.095-1.751-5.804-3.159
					C15.309,31.68,14.291,30.842,13.839,30.842z"/>
			</g>
			<ellipse fill="#EF9E2D" cx="20.265" cy="41.426" rx="1.425" ry="1.515"/>
			<path fill="#EF9E2D" d="M29.532,50.82c-1.086,0-2.051-0.56-2.646-1.419c-0.595,0.859-1.56,1.419-2.646,1.419
				c-1.803,0-3.27-1.542-3.27-3.436c0-0.345,0.279-0.624,0.624-0.624s0.624,0.279,0.624,0.624c0,1.207,0.907,2.188,2.022,2.188
				c1.115,0,2.022-0.981,2.022-2.188c0-0.345,0.279-0.624,0.624-0.624s0.624,0.279,0.624,0.624c0,1.207,0.907,2.188,2.022,2.188
				c1.115,0,2.022-0.981,2.022-2.188c0-0.345,0.279-0.624,0.624-0.624c0.345,0,0.624,0.279,0.624,0.624
				C32.802,49.279,31.335,50.82,29.532,50.82z"/>
			<ellipse fill="#EF9E2D" cx="32.802" cy="41.298" rx="1.425" ry="1.515"/>
		</g>
	</g>
</g>
<g display="none">
	<path display="inline" fill="#FFFFFF" d="M25.981,16.506c-0.541,0-0.945,0.109-1.143,0.212c-2.394,1.238-5.1,2.469-7.964,3.772
		c-3.963,1.803-8.06,3.668-11.281,5.555c-0.593,0.347-1.237,1.395-1.243,1.871C4.272,33.943,4.264,38.62,4.256,43.144
		c-0.008,4.454-0.016,9.059-0.09,14.981c-0.016,1.254,0.186,2.103,0.598,2.52c0.408,0.413,1.207,0.613,2.442,0.613l0,1.5l0.083-1.5
		c4.98-0.037,11.369-0.057,18.477-0.057c6.732,0,13.484,0.018,19.054,0.044h0.001c1.195,0,1.986-0.212,2.396-0.63
		c0.409-0.417,0.606-1.205,0.586-2.342c-0.074-4.053-0.058-8.167-0.042-12.147c0.006-1.684,0.013-3.369,0.013-5.053l0.016-1.5
		c0.006-1.105,0.017-1.978,0.027-2.746c0.031-2.354,0.048-3.651-0.141-7.594c-0.055-1.152-0.904-2.816-1.682-3.297
		c-3.204-1.981-7.36-3.866-11.379-5.69c-2.663-1.208-5.179-2.35-7.414-3.508C26.986,16.626,26.551,16.506,25.981,16.506z"/>
	<g display="inline">
		<path fill="#919192" d="M7.207,64.258c-2.108,0-3.563-0.478-4.578-1.505c-1.025-1.038-1.49-2.521-1.463-4.666
			c0.074-5.906,0.083-10.503,0.09-14.949c0.008-4.531,0.017-9.217,0.095-15.261c0.023-1.757,1.433-3.662,2.726-4.42
			c3.354-1.965,7.523-3.862,11.555-5.697c2.829-1.288,5.501-2.504,7.829-3.707c1.384-0.714,3.727-0.701,5.123,0.022
			c2.165,1.123,4.646,2.248,7.272,3.439c4.105,1.863,8.35,3.789,11.717,5.87c1.824,1.128,3.009,3.787,3.101,5.705
			c0.193,4.034,0.175,5.443,0.144,7.776c-0.014,1.077-0.031,2.36-0.031,4.207l-0.013,1.5c-0.002,1.188-0.007,2.377-0.011,3.565
			c-0.015,3.963-0.031,8.061,0.042,12.081c0.036,2-0.437,3.472-1.445,4.499c-1.009,1.027-2.479,1.527-4.493,1.527
			c-5.625-0.026-12.372-0.044-19.099-0.044c-7.1,0-13.481,0.02-18.454,0.057H7.207z M25.981,16.506
			c-0.541,0-0.945,0.109-1.143,0.212c-2.394,1.238-5.1,2.469-7.964,3.772c-3.963,1.803-8.06,3.668-11.281,5.555
			c-0.593,0.347-1.237,1.395-1.243,1.871C4.272,33.943,4.264,38.62,4.256,43.144c-0.008,4.454-0.016,9.059-0.09,14.981
			c-0.016,1.254,0.186,2.103,0.598,2.52c0.408,0.413,1.207,0.613,2.442,0.613l0,1.5l0.083-1.5c4.98-0.037,11.369-0.057,18.477-0.057
			c6.732,0,13.484,0.018,19.054,0.044h0.001c1.195,0,1.986-0.212,2.396-0.63c0.409-0.417,0.606-1.205,0.586-2.342
			c-0.074-4.053-0.058-8.167-0.042-12.147c0.006-1.684,0.013-3.369,0.013-5.053l0.016-1.5c0.006-1.105,0.017-1.978,0.027-2.746
			c0.031-2.354,0.048-3.651-0.141-7.594c-0.055-1.152-0.904-2.816-1.682-3.297c-3.204-1.981-7.36-3.866-11.379-5.69
			c-2.663-1.208-5.179-2.35-7.414-3.508C26.986,16.626,26.551,16.506,25.981,16.506z"/>
		<path fill="#919192" d="M2.502,19.746c-0.912,0-1.791-0.501-2.231-1.369c-0.625-1.231-0.133-2.736,1.098-3.361L22.148,4.469
			c2.398-1.348,5.26-1.382,7.687-0.09l20.742,9.893c1.246,0.595,1.775,2.087,1.18,3.333c-0.595,1.247-2.088,1.771-3.333,1.181
			L27.628,8.867c-0.04-0.02-0.079-0.039-0.117-0.061c-0.912-0.495-2.037-0.482-2.936,0.035c-0.037,0.021-0.074,0.041-0.112,0.061
			L3.632,19.474C3.27,19.658,2.883,19.746,2.502,19.746z"/>
		<circle fill="#919192" cx="26.001" cy="41.597" r="12.547"/>
	</g>
</g>
</svg>
