<?xml version="1.0" encoding="utf-8"?>
<!-- Generator: Adobe Illustrator 17.0.0, SVG Export Plug-In . SVG Version: 6.00 Build 0)  -->
<!DOCTYPE svg PUBLIC "-//W3C//DTD SVG 1.1//EN" "http://www.w3.org/Graphics/SVG/1.1/DTD/svg11.dtd">
<svg version="1.1" xmlns="http://www.w3.org/2000/svg" xmlns:xlink="http://www.w3.org/1999/xlink" x="0px" y="0px"
	 width="222.411px" height="60.824px" viewBox="0 0 222.411 60.824" enable-background="new 0 0 222.411 60.824"
	 xml:space="preserve">
<g id="Layer_2">
</g>
<g id="Layer_1">
	<g>
		<path fill="#FFFFFF" d="M30.383-120.494c-0.541,0-0.945,0.109-1.143,0.212c-2.394,1.238-5.1,2.469-7.964,3.772
			c-3.963,1.803-8.06,3.668-11.281,5.555c-0.593,0.347-1.237,1.395-1.243,1.871c-0.079,6.027-0.087,10.705-0.095,15.228
			c-0.008,4.454-0.016,9.059-0.09,14.981c-0.016,1.254,0.186,2.103,0.598,2.52c0.408,0.413,1.207,0.613,2.442,0.613l0,1.5l0.083-1.5
			c4.98-0.037,11.369-0.057,18.477-0.057c6.732,0,13.484,0.018,19.054,0.044h0.001c1.195,0,1.986-0.212,2.396-0.63
			c0.409-0.417,0.606-1.205,0.586-2.342c-0.074-4.053-0.058-8.167-0.042-12.147c0.006-1.684,0.013-3.369,0.013-5.053l0.016-1.5
			c0.006-1.105,0.017-1.978,0.027-2.746c0.031-2.354,0.048-3.651-0.141-7.594c-0.055-1.152-0.904-2.816-1.682-3.297
			c-3.204-1.981-7.36-3.866-11.379-5.69c-2.663-1.208-5.179-2.35-7.414-3.508C31.387-120.374,30.953-120.494,30.383-120.494z"/>
		<g>
			<path fill="#919191" d="M11.608-72.742c-2.108,0-3.563-0.478-4.578-1.505c-1.025-1.038-1.49-2.521-1.463-4.666
				c0.074-5.906,0.083-10.503,0.09-14.949c0.008-4.531,0.017-9.217,0.095-15.261c0.023-1.757,1.433-3.662,2.726-4.42
				c3.354-1.965,7.523-3.862,11.555-5.697c2.829-1.288,5.501-2.504,7.829-3.707c1.384-0.714,3.727-0.701,5.123,0.022
				c2.165,1.123,4.646,2.248,7.272,3.439c4.105,1.863,8.35,3.789,11.717,5.87c1.824,1.128,3.009,3.787,3.101,5.705
				c0.193,4.034,0.175,5.443,0.144,7.776c-0.014,1.077-0.031,2.36-0.031,4.207l-0.013,1.5c-0.002,1.188-0.007,2.377-0.011,3.565
				c-0.015,3.963-0.031,8.061,0.042,12.081c0.036,2-0.437,3.472-1.445,4.499c-1.009,1.027-2.479,1.527-4.493,1.527
				c-5.625-0.026-12.372-0.044-19.099-0.044c-7.1,0-13.481,0.02-18.454,0.057H11.608z M30.383-120.494
				c-0.541,0-0.945,0.109-1.143,0.212c-2.394,1.238-5.1,2.469-7.964,3.772c-3.963,1.803-8.06,3.668-11.281,5.555
				c-0.593,0.347-1.237,1.395-1.243,1.871c-0.079,6.027-0.087,10.705-0.095,15.228c-0.008,4.454-0.016,9.059-0.09,14.981
				c-0.016,1.254,0.186,2.103,0.598,2.52c0.408,0.413,1.207,0.613,2.442,0.613l0,1.5l0.083-1.5
				c4.98-0.037,11.369-0.057,18.477-0.057c6.732,0,13.484,0.018,19.054,0.044h0.001c1.195,0,1.986-0.212,2.396-0.63
				c0.409-0.417,0.606-1.205,0.586-2.342c-0.074-4.053-0.058-8.167-0.042-12.147c0.006-1.684,0.013-3.369,0.013-5.053l0.016-1.5
				c0.006-1.105,0.017-1.978,0.027-2.746c0.031-2.354,0.048-3.651-0.141-7.594c-0.055-1.152-0.904-2.816-1.682-3.297
				c-3.204-1.981-7.36-3.866-11.379-5.69c-2.663-1.208-5.179-2.35-7.414-3.508C31.387-120.374,30.953-120.494,30.383-120.494z"/>
			<path fill="#919191" d="M6.904-117.254c-0.912,0-1.791-0.501-2.231-1.369c-0.625-1.231-0.133-2.736,1.098-3.361l20.779-10.546
				c2.398-1.348,5.26-1.382,7.687-0.09l20.742,9.893c1.246,0.595,1.775,2.087,1.18,3.333c-0.595,1.247-2.088,1.771-3.333,1.181
				l-20.796-9.919c-0.04-0.02-0.079-0.039-0.117-0.061c-0.912-0.495-2.037-0.482-2.936,0.035c-0.037,0.021-0.074,0.041-0.112,0.061
				L8.033-117.526C7.671-117.342,7.284-117.254,6.904-117.254z"/>
			<circle fill="#919191" cx="30.402" cy="-95.403" r="12.547"/>
		</g>
	</g>
</g>
<g id="Layer_3">
	<g>
		<path fill="#FFFFFF" d="M194.572-78.39h-5.125c-21.593,0-24.816-12.566-24.816-20.056c0-9.391,1.444-27.139,2.929-29.397
			c0.832,0.163,2.958,1.916,4.532,3.212c3.523,2.903,7.908,6.516,12.077,6.516h15.061c-1.665,2.768-3.224,8.261-1.672,12.223
			c1.909,4.872,6.825,6.875,12,6.875c4.662,0,7.738-2.323,9.739-4.243c0.06,1.731,0.093,3.363,0.093,4.814
			C219.388-90.956,216.165-78.39,194.572-78.39z"/>
		<g>
			<ellipse fill="#919191" cx="179.886" cy="-106.931" rx="2.886" ry="3.067"/>
			<path fill="#919191" d="M198.366-89.514c-2.199,0-4.153-1.134-5.357-2.873c-1.204,1.739-3.158,2.873-5.357,2.873
				c-3.65,0-6.621-3.121-6.621-6.957c0-0.698,0.565-1.264,1.264-1.264s1.264,0.566,1.264,1.264c0,2.443,1.836,4.43,4.093,4.43
				s4.093-1.987,4.093-4.43c0-0.698,0.565-1.264,1.264-1.264c0.699,0,1.264,0.566,1.264,1.264c0,2.443,1.836,4.43,4.093,4.43
				s4.093-1.987,4.093-4.43c0-0.698,0.565-1.264,1.264-1.264c0.698,0,1.264,0.566,1.264,1.264
				C204.987-92.635,202.017-89.514,198.366-89.514z"/>
			<path fill="#919191" d="M218.092-129.808c-0.411-0.376-0.932-0.576-1.504-0.576c-0.063,0-0.128,0.018-0.192,0.023
				c-0.012-0.006-0.024-0.018-0.036-0.023c-0.733-0.28-1.777,0.421-3.045,1.543c-0.795,0.611-1.664,1.368-2.641,2.224
				c-2.107,1.845-4.572,4-6.974,5.15c-0.249,0.085-1.47,0.475-1.816,0.661c-0.441,0.104-0.877,0.163-1.303,0.163h-16.415
				c-3.262,0-7.258-3.293-10.469-5.939c-2.678-2.207-4.613-3.802-6.253-3.802c-0.582,0-1.108,0.199-1.519,0.576
				c-3.064,2.809-3.823,27.89-3.823,31.361c0,14.352,9.966,22.584,27.344,22.584h5.125c17.377,0,27.344-8.231,27.344-22.584
				C221.915-101.919,221.156-127,218.092-129.808z M194.572-78.39h-5.125c-21.593,0-24.816-12.566-24.816-20.056
				c0-9.391,1.444-27.139,2.929-29.397c0.832,0.163,2.958,1.916,4.532,3.212c3.523,2.903,7.908,6.516,12.077,6.516h15.061
				c-1.665,2.768-3.224,8.261-1.672,12.223c1.909,4.872,6.825,6.875,12,6.875c4.662,0,7.738-2.323,9.739-4.243
				c0.06,1.731,0.093,3.363,0.093,4.814C219.388-90.956,216.165-78.39,194.572-78.39z"/>
			<ellipse fill="#FFFFFF" cx="205.268" cy="-107.19" rx="2.886" ry="3.067"/>
		</g>
		<ellipse fill="#FFFFFF" cx="205.268" cy="-107.19" rx="2.886" ry="3.067"/>
	</g>
</g>
<g id="Layer_4">
	<g>
		<text transform="matrix(1 0 0 1 11.4327 50.5942)" fill="#919191" font-family="'FZY3JW--GB1-0'" font-size="9.936">首页</text>
	</g>
	<g>
		<text transform="matrix(1 0 0 1 45.2175 50.5942)" fill="#919191" font-family="'FZY3JW--GB1-0'" font-size="9.936">订单</text>
	</g>
	<g>
		<text transform="matrix(1 0 0 1 80.6688 50.5941)" fill="#919191" font-family="'FZY3JW--GB1-0'" font-size="9.936">我的</text>
	</g>
	<text transform="matrix(1 0 0 1 125.013 50.5942)" fill="#919191" font-family="'FZY3JW--GB1-0'" font-size="9.936">首页</text>
	<g>
		<text transform="matrix(1 0 0 1 158.7977 50.5942)" fill="#919191" font-family="'FZY3JW--GB1-0'" font-size="9.936">订单</text>
	</g>
	<g>
		<text transform="matrix(1 0 0 1 194.249 50.594)" fill="#919191" font-family="'FZY3JW--GB1-0'" font-size="9.936">我的</text>
	</g>
	<rect x="125.756" y="53.584" fill="#F8A226" width="18.778" height="1.447"/>
	<g>
		<path fill="#FFFFFF" d="M88.093-111.799l-3.819,16.229c-0.668,2.842,0.774,5.801,3.43,7.037c4.389,2.04,12.09,4.471,23.851,4.471
			c11.709,0,19.389-2.411,23.77-4.434c2.701-1.248,4.131-4.248,3.402-7.134l-3.949-15.622c-3.055,1.715-10.012,4.464-23.223,4.464
			C98.498-106.788,91.266-109.914,88.093-111.799z"/>
		<g>
			<g>
				<path fill="#919191" d="M111.555-81.063c-12.309,0-20.452-2.584-25.115-4.751c-3.939-1.832-6.079-6.225-5.085-10.444
					l4.324-18.374c0.122-0.519,0.511-0.935,1.021-1.09c0.508-0.157,1.063-0.031,1.457,0.332c0.055,0.049,6.434,5.602,23.399,5.602
					c17.396,0,23.084-4.947,23.14-4.997c0.391-0.352,0.942-0.479,1.446-0.327c0.503,0.153,0.895,0.553,1.024,1.062l4.47,17.683
					c1.083,4.286-1.042,8.741-5.052,10.592C131.929-83.624,123.809-81.063,111.555-81.063z M88.093-111.799l-3.819,16.229
					c-0.668,2.842,0.774,5.801,3.43,7.037c4.389,2.04,12.09,4.471,23.851,4.471c11.709,0,19.389-2.411,23.77-4.434
					c2.701-1.248,4.131-4.248,3.402-7.134l-3.949-15.622c-3.055,1.715-10.012,4.464-23.223,4.464
					C98.498-106.788,91.266-109.914,88.093-111.799z"/>
				<g>
					<path fill="#919191" d="M113.043-99.28c-0.187,0-0.387-0.008-0.598-0.016c-0.427-0.017-0.912-0.017-1.339,0
						c-0.21,0.008-0.411,0.016-0.598,0.016c-0.447,0-0.96-0.038-1.377-0.323c-0.45-0.307-0.678-0.818-0.678-1.518
						c0-1.832,1.491-3.322,3.322-3.322c1.832,0,3.322,1.491,3.322,3.322C115.098-99.28,113.551-99.28,113.043-99.28z"/>
					<path fill="#919191" d="M101.986-94.946c-0.452,0-0.874-0.205-1.291-0.627c-0.623-0.631-0.963-1.468-0.958-2.355
						s0.357-1.719,0.988-2.343c0.626-0.618,1.454-0.958,2.333-0.958c0.896,0,1.735,0.351,2.364,0.988
						c0.423,0.428,0.622,0.859,0.61,1.318c-0.02,0.753-0.601,1.284-1.217,1.845c-0.157,0.144-0.324,0.295-0.488,0.457
						c-0.165,0.163-0.318,0.327-0.464,0.483C103.291-95.525,102.748-94.946,101.986-94.946z"/>
					<path fill="#919191" d="M121.125-94.946c-0.762,0-1.305-0.579-1.879-1.192c-0.146-0.156-0.299-0.32-0.464-0.483
						c-0.165-0.163-0.331-0.314-0.489-0.458c-0.615-0.561-1.196-1.091-1.216-1.844c-0.012-0.459,0.188-0.89,0.61-1.318
						c0.629-0.638,1.469-0.988,2.364-0.988c0.879,0,1.708,0.34,2.333,0.958c0.632,0.623,0.983,1.455,0.988,2.343
						c0.006,0.887-0.334,1.724-0.958,2.355C121.999-95.151,121.577-94.946,121.125-94.946z"/>
					<path fill="#919191" d="M115.274-87.068c-0.509,0-1.042-0.017-1.607-0.036c-1.22-0.04-2.561-0.04-3.782,0
						c-0.565,0.018-1.098,0.036-1.607,0.036c-1.068,0-2.283-0.069-3.189-0.586c-0.941-0.536-1.398-1.435-1.398-2.748
						c0-3.72,3.627-6.747,8.085-6.747c4.458,0,8.085,3.027,8.085,6.747C119.861-87.463,117.542-87.068,115.274-87.068z"/>
				</g>
				<path fill="#919191" d="M111.555-110.99c-8.866,0-23.871-1.501-23.871-7.127c0-5.627,15.005-7.128,23.871-7.128
					s23.871,1.501,23.871,7.128C135.426-112.491,120.421-110.99,111.555-110.99z M111.555-122.099
					c-12.82,0-20.309,2.612-20.729,4.014c0.42,1.336,7.91,3.948,20.729,3.948s20.308-2.612,20.729-4.013
					C131.864-119.486,124.376-122.099,111.555-122.099z"/>
			</g>
		</g>
		<path fill="#FFFFFF" d="M111.555-122.099c-12.82,0-20.309,2.612-20.729,4.014c0.42,1.336,7.91,3.948,20.729,3.948
			s20.308-2.612,20.729-4.013C131.864-119.486,124.376-122.099,111.555-122.099z"/>
	</g>
	<g>
		<path fill="#FFFFFF" d="M19.998,15.098c-0.232,0-0.405,0.047-0.49,0.091c-1.026,0.531-2.186,1.058-3.413,1.617
			c-1.699,0.773-3.455,1.572-4.835,2.381c-0.254,0.149-0.53,0.598-0.533,0.802c-0.034,2.583-0.037,4.588-0.041,6.527
			c-0.003,1.909-0.007,3.883-0.039,6.421c-0.007,0.538,0.08,0.901,0.256,1.08c0.175,0.177,0.517,0.263,1.047,0.263l0,0.643
			l0.036-0.643c2.134-0.016,4.873-0.024,7.919-0.024c2.886,0,5.779,0.008,8.167,0.019h0c0.512,0,0.851-0.091,1.027-0.27
			c0.175-0.179,0.26-0.516,0.251-1.004c-0.032-1.737-0.025-3.501-0.018-5.206c0.003-0.722,0.005-1.444,0.005-2.166l0.007-0.643
			c0.003-0.474,0.007-0.848,0.012-1.177c0.013-1.009,0.021-1.565-0.06-3.255c-0.024-0.494-0.388-1.207-0.721-1.413
			c-1.373-0.849-3.154-1.657-4.877-2.439c-1.141-0.518-2.22-1.007-3.178-1.504C20.429,15.149,20.243,15.098,19.998,15.098z"/>
		<g>
			<path fill="#919191" d="M11.951,35.565c-0.904,0-1.527-0.205-1.962-0.645c-0.439-0.445-0.639-1.081-0.627-2
				c0.032-2.531,0.035-4.502,0.039-6.407c0.004-1.942,0.007-3.951,0.041-6.541c0.01-0.753,0.614-1.57,1.168-1.894
				c1.438-0.842,3.225-1.655,4.953-2.442c1.213-0.552,2.358-1.073,3.356-1.589c0.593-0.306,1.597-0.301,2.196,0.01
				c0.928,0.481,1.991,0.964,3.117,1.474c1.759,0.798,3.579,1.624,5.022,2.516c0.782,0.483,1.29,1.623,1.329,2.445
				c0.083,1.729,0.075,2.333,0.062,3.333c-0.006,0.461-0.013,1.011-0.013,1.803l-0.006,0.643c-0.001,0.509-0.003,1.019-0.005,1.528
				c-0.006,1.699-0.013,3.455,0.018,5.178c0.015,0.857-0.187,1.488-0.619,1.928c-0.433,0.44-1.063,0.655-1.926,0.655
				c-2.411-0.011-5.303-0.019-8.186-0.019c-3.043,0-5.778,0.008-7.91,0.024H11.951z M19.998,15.098c-0.232,0-0.405,0.047-0.49,0.091
				c-1.026,0.531-2.186,1.058-3.413,1.617c-1.699,0.773-3.455,1.572-4.835,2.381c-0.254,0.149-0.53,0.598-0.533,0.802
				c-0.034,2.583-0.037,4.588-0.041,6.527c-0.003,1.909-0.007,3.883-0.039,6.421c-0.007,0.538,0.08,0.901,0.256,1.08
				c0.175,0.177,0.517,0.263,1.047,0.263l0,0.643l0.036-0.643c2.134-0.016,4.873-0.024,7.919-0.024c2.886,0,5.779,0.008,8.167,0.019
				h0c0.512,0,0.851-0.091,1.027-0.27c0.175-0.179,0.26-0.516,0.251-1.004c-0.032-1.737-0.025-3.501-0.018-5.206
				c0.003-0.722,0.005-1.444,0.005-2.166l0.007-0.643c0.003-0.474,0.007-0.848,0.012-1.177c0.013-1.009,0.021-1.565-0.06-3.255
				c-0.024-0.494-0.388-1.207-0.721-1.413c-1.373-0.849-3.154-1.657-4.877-2.439c-1.141-0.518-2.22-1.007-3.178-1.504
				C20.429,15.149,20.243,15.098,19.998,15.098z"/>
			<path fill="#919191" d="M9.935,16.486c-0.391,0-0.767-0.215-0.956-0.587c-0.268-0.528-0.057-1.173,0.471-1.441l8.906-4.52
				C19.383,9.361,20.61,9.346,21.65,9.9l8.89,4.24c0.534,0.255,0.761,0.894,0.506,1.429c-0.255,0.535-0.895,0.759-1.428,0.506
				l-8.913-4.251c-0.017-0.008-0.034-0.017-0.05-0.026c-0.391-0.212-0.873-0.207-1.258,0.015c-0.016,0.009-0.032,0.018-0.048,0.026
				l-8.928,4.531C10.264,16.449,10.098,16.486,9.935,16.486z"/>
			<circle fill="#919191" cx="20.006" cy="25.852" r="5.378"/>
		</g>
	</g>
	<g>
		<path fill="#FFFFFF" d="M90.371,33.144h-2.197c-9.255,0-10.636-5.386-10.636-8.596c0-4.025,0.619-11.632,1.255-12.6
			c0.356,0.07,1.268,0.821,1.942,1.377c1.51,1.244,3.389,2.793,5.176,2.793h6.455c-0.714,1.187-1.382,3.541-0.717,5.239
			c0.818,2.088,2.925,2.947,5.143,2.947c1.998,0,3.317-0.996,4.174-1.819c0.026,0.742,0.04,1.441,0.04,2.063
			C101.007,27.758,99.626,33.144,90.371,33.144z"/>
		<g>
			<ellipse fill="#919191" cx="84.076" cy="20.911" rx="1.237" ry="1.314"/>
			<path fill="#919191" d="M91.997,28.376c-0.943,0-1.78-0.486-2.296-1.231c-0.516,0.746-1.354,1.231-2.296,1.231
				c-1.565,0-2.838-1.338-2.838-2.982c0-0.299,0.242-0.542,0.542-0.542s0.542,0.243,0.542,0.542c0,1.047,0.787,1.899,1.754,1.899
				c0.967,0,1.754-0.852,1.754-1.899c0-0.299,0.242-0.542,0.542-0.542s0.542,0.243,0.542,0.542c0,1.047,0.787,1.899,1.754,1.899
				c0.967,0,1.754-0.852,1.754-1.899c0-0.299,0.242-0.542,0.542-0.542s0.542,0.243,0.542,0.542
				C94.835,27.038,93.562,28.376,91.997,28.376z"/>
			<path fill="#919191" d="M100.452,11.106c-0.176-0.161-0.399-0.247-0.645-0.247c-0.027,0-0.055,0.008-0.082,0.01
				c-0.005-0.003-0.01-0.008-0.015-0.01c-0.314-0.12-0.762,0.18-1.305,0.661c-0.341,0.262-0.713,0.586-1.132,0.953
				c-0.903,0.791-1.96,1.714-2.989,2.207c-0.107,0.036-0.63,0.204-0.778,0.283c-0.189,0.045-0.376,0.07-0.558,0.07h-7.035
				c-1.398,0-3.111-1.411-4.487-2.546c-1.148-0.946-1.977-1.629-2.68-1.629c-0.25,0-0.475,0.085-0.651,0.247
				c-1.313,1.204-1.639,11.954-1.639,13.442c0,6.152,4.272,9.68,11.72,9.68h2.197c7.448,0,11.72-3.528,11.72-9.68
				C102.09,23.059,101.765,12.309,100.452,11.106z M90.371,33.144h-2.197c-9.255,0-10.636-5.386-10.636-8.596
				c0-4.025,0.619-11.632,1.255-12.6c0.356,0.07,1.268,0.821,1.942,1.377c1.51,1.244,3.389,2.793,5.176,2.793h6.455
				c-0.714,1.187-1.382,3.541-0.717,5.239c0.818,2.088,2.925,2.947,5.143,2.947c1.998,0,3.317-0.996,4.174-1.819
				c0.026,0.742,0.04,1.441,0.04,2.063C101.007,27.758,99.626,33.144,90.371,33.144z"/>
			<ellipse fill="#FFFFFF" cx="94.955" cy="20.8" rx="1.237" ry="1.314"/>
		</g>
		<ellipse fill="#FFFFFF" cx="94.955" cy="20.8" rx="1.237" ry="1.314"/>
	</g>
	<g>
		<path fill="#FFFFFF" d="M44.733,18.824l-1.637,6.956c-0.287,1.218,0.332,2.486,1.47,3.016c1.881,0.874,5.182,1.916,10.223,1.916
			c5.019,0,8.31-1.033,10.188-1.9c1.158-0.535,1.771-1.821,1.458-3.058l-1.693-6.696c-1.309,0.735-4.291,1.913-9.953,1.913
			C49.193,20.972,46.093,19.632,44.733,18.824z"/>
		<g>
			<g>
				<path fill="#919191" d="M54.789,31.998c-5.276,0-8.766-1.108-10.765-2.036c-1.688-0.785-2.605-2.668-2.18-4.477l1.853-7.875
					c0.052-0.222,0.219-0.401,0.438-0.467c0.218-0.067,0.456-0.013,0.624,0.142c0.023,0.021,2.757,2.401,10.029,2.401
					c7.456,0,9.894-2.12,9.918-2.142c0.168-0.151,0.404-0.206,0.62-0.14c0.216,0.066,0.384,0.237,0.439,0.455l1.916,7.579
					c0.464,1.837-0.446,3.746-2.165,4.54C63.522,30.9,60.041,31.998,54.789,31.998z M44.733,18.824l-1.637,6.956
					c-0.287,1.218,0.332,2.486,1.47,3.016c1.881,0.874,5.182,1.916,10.223,1.916c5.019,0,8.31-1.033,10.188-1.9
					c1.158-0.535,1.771-1.821,1.458-3.058l-1.693-6.696c-1.309,0.735-4.291,1.913-9.953,1.913
					C49.193,20.972,46.093,19.632,44.733,18.824z"/>
				<g>
					<path fill="#919191" d="M55.427,24.19c-0.08,0-0.166-0.003-0.256-0.007c-0.183-0.007-0.391-0.007-0.574,0
						c-0.09,0.004-0.176,0.007-0.256,0.007c-0.192,0-0.412-0.016-0.59-0.138c-0.193-0.132-0.291-0.35-0.291-0.651
						c0-0.785,0.639-1.424,1.424-1.424c0.785,0,1.424,0.639,1.424,1.424C56.308,24.19,55.645,24.19,55.427,24.19z"/>
					<path fill="#919191" d="M50.688,26.048c-0.194,0-0.375-0.088-0.553-0.269c-0.267-0.271-0.413-0.629-0.41-1.009
						c0.002-0.38,0.153-0.737,0.424-1.004c0.268-0.265,0.623-0.41,1-0.41c0.384,0,0.744,0.15,1.013,0.424
						c0.181,0.183,0.267,0.368,0.261,0.565c-0.009,0.323-0.258,0.55-0.521,0.791c-0.068,0.062-0.139,0.126-0.209,0.196
						c-0.071,0.07-0.136,0.14-0.199,0.207C51.247,25.8,51.015,26.048,50.688,26.048z"/>
					<path fill="#919191" d="M58.891,26.048c-0.327,0-0.559-0.248-0.805-0.511c-0.062-0.067-0.128-0.137-0.199-0.207
						c-0.071-0.07-0.142-0.135-0.209-0.196c-0.264-0.241-0.513-0.468-0.521-0.79c-0.005-0.197,0.08-0.381,0.261-0.565
						c0.27-0.273,0.629-0.424,1.013-0.424c0.377,0,0.732,0.146,1,0.41c0.271,0.267,0.421,0.624,0.424,1.004
						c0.002,0.38-0.143,0.739-0.41,1.009C59.266,25.96,59.085,26.048,58.891,26.048z"/>
					<path fill="#919191" d="M56.383,29.425c-0.218,0-0.447-0.007-0.689-0.015c-0.523-0.017-1.098-0.017-1.621,0
						c-0.242,0.008-0.471,0.015-0.689,0.015c-0.458,0-0.978-0.03-1.367-0.251c-0.403-0.23-0.599-0.615-0.599-1.178
						c0-1.595,1.554-2.892,3.465-2.892s3.465,1.297,3.465,2.892C58.349,29.255,57.355,29.425,56.383,29.425z"/>
				</g>
				<path fill="#919191" d="M54.789,19.171c-3.8,0-10.231-0.643-10.231-3.055c0-2.412,6.431-3.055,10.231-3.055
					c3.8,0,10.231,0.643,10.231,3.055C65.021,18.528,58.589,19.171,54.789,19.171z M54.789,14.41c-5.495,0-8.705,1.12-8.884,1.72
					c0.18,0.573,3.39,1.692,8.884,1.692s8.704-1.12,8.884-1.72C63.494,15.53,60.284,14.41,54.789,14.41z"/>
			</g>
		</g>
		<path fill="#FFFFFF" d="M54.789,14.41c-5.495,0-8.705,1.12-8.884,1.72c0.18,0.573,3.39,1.692,8.884,1.692s8.704-1.12,8.884-1.72
			C63.494,15.53,60.284,14.41,54.789,14.41z"/>
	</g>
	<g>
		<path fill="#FFFFFF" d="M134.58,15.098c-0.232,0-0.405,0.047-0.49,0.091c-1.026,0.531-2.186,1.058-3.414,1.617
			c-1.698,0.773-3.454,1.572-4.835,2.381c-0.254,0.149-0.53,0.598-0.532,0.802c-0.033,2.581-0.037,4.584-0.041,6.521
			c-0.003,1.91-0.007,3.886-0.039,6.426c-0.007,0.538,0.08,0.901,0.256,1.08c0.175,0.177,0.517,0.263,1.047,0.263v0.643l0.036-0.643
			c2.12-0.015,4.848-0.024,7.887-0.024c2.896,0,5.803,0.008,8.199,0.018h0c0.512,0,0.851-0.091,1.028-0.27
			c0.175-0.179,0.26-0.516,0.251-1.003c-0.031-1.737-0.025-3.501-0.018-5.206c0.003-0.722,0.005-1.444,0.005-2.166l0.007-0.643
			c0.003-0.473,0.008-0.848,0.012-1.177c0.013-1.009,0.021-1.565-0.06-3.255c-0.024-0.494-0.388-1.207-0.721-1.413
			c-1.372-0.849-3.153-1.656-4.875-2.438c-1.142-0.518-2.221-1.008-3.179-1.505C135.01,15.15,134.824,15.098,134.58,15.098z"/>
		<path fill="#FFFFFF" d="M129.387,21.242c-0.44,0.488-0.702,4.689-0.702,6.333c0,2.807,1.904,4.352,5.36,4.352h1.085
			c3.456,0,5.36-1.546,5.36-4.352c0-1.643-0.262-5.844-0.676-6.329l-0.118,0.009l-0.036-0.014c-0.03,0.022-0.117,0.078-0.277,0.22
			c-0.185,0.144-0.362,0.298-0.561,0.472c-0.474,0.415-1.012,0.885-1.574,1.154l-0.09,0.034c-0.073,0.024-0.221,0.071-0.283,0.1
			l-0.099,0.037c-0.131,0.031-0.254,0.046-0.374,0.046h-3.475c-0.844,0-1.755-0.751-2.488-1.354
			C130.017,21.601,129.581,21.242,129.387,21.242z"/>
		<g>
			<path fill="#F8A226" d="M126.532,35.564c-0.904,0-1.527-0.205-1.962-0.645c-0.439-0.445-0.638-1.08-0.627-1.999
				c0.032-2.534,0.036-4.506,0.039-6.413c0.003-1.941,0.007-3.948,0.041-6.536c0.01-0.753,0.614-1.57,1.168-1.894
				c1.438-0.842,3.225-1.655,4.952-2.442c1.213-0.552,2.358-1.073,3.356-1.589c0.592-0.306,1.597-0.301,2.195,0.009
				c0.929,0.482,1.993,0.964,3.119,1.475c1.759,0.798,3.577,1.623,5.02,2.515c0.782,0.483,1.29,1.623,1.329,2.445
				c0.083,1.729,0.075,2.333,0.062,3.333c-0.006,0.461-0.013,1.011-0.013,1.803l-0.006,0.643c-0.001,0.509-0.003,1.019-0.005,1.528
				c-0.007,1.699-0.013,3.455,0.018,5.178c0.015,0.857-0.187,1.488-0.619,1.928c-0.433,0.44-1.063,0.655-1.926,0.655
				c-2.42-0.011-5.324-0.018-8.218-0.018c-3.036,0-5.759,0.008-7.877,0.024H126.532z M134.58,15.098
				c-0.232,0-0.405,0.047-0.49,0.091c-1.026,0.531-2.186,1.058-3.414,1.617c-1.698,0.773-3.454,1.572-4.835,2.381
				c-0.254,0.149-0.53,0.598-0.532,0.802c-0.033,2.581-0.037,4.584-0.041,6.521c-0.003,1.91-0.007,3.886-0.039,6.426
				c-0.007,0.538,0.08,0.901,0.256,1.08c0.175,0.177,0.517,0.263,1.047,0.263v0.643l0.036-0.643c2.12-0.015,4.848-0.024,7.887-0.024
				c2.896,0,5.803,0.008,8.199,0.018h0c0.512,0,0.851-0.091,1.028-0.27c0.175-0.179,0.26-0.516,0.251-1.003
				c-0.031-1.737-0.025-3.501-0.018-5.206c0.003-0.722,0.005-1.444,0.005-2.166l0.007-0.643c0.003-0.473,0.008-0.848,0.012-1.177
				c0.013-1.009,0.021-1.565-0.06-3.255c-0.024-0.494-0.388-1.207-0.721-1.413c-1.372-0.849-3.153-1.656-4.875-2.438
				c-1.142-0.518-2.221-1.008-3.179-1.505C135.01,15.15,134.824,15.098,134.58,15.098z"/>
			<path fill="#F8A226" d="M124.529,16.486c-0.391,0-0.767-0.215-0.956-0.587c-0.268-0.528-0.057-1.173,0.471-1.441l8.906-4.52
				c1.028-0.578,2.255-0.592,3.295-0.039l8.89,4.24c0.534,0.255,0.761,0.894,0.506,1.429c-0.255,0.535-0.895,0.759-1.428,0.506
				l-8.913-4.251c-0.017-0.008-0.034-0.017-0.05-0.026c-0.391-0.212-0.873-0.207-1.258,0.015c-0.016,0.009-0.032,0.018-0.048,0.026
				l-8.928,4.531C124.857,16.449,124.692,16.486,124.529,16.486z"/>
			<circle fill="#F8A226" cx="134.6" cy="25.852" r="5.378"/>
			<g>
				<g>
					<path fill="#FFFFFF" d="M140.11,20.935c-0.087-0.08-0.197-0.122-0.318-0.122c-0.013,0-0.027,0.004-0.041,0.005
						c-0.003-0.001-0.005-0.004-0.008-0.005c-0.155-0.059-0.376,0.089-0.645,0.327c-0.168,0.129-0.352,0.29-0.559,0.471
						c-0.446,0.391-0.968,0.847-1.476,1.09c-0.053,0.018-0.311,0.101-0.384,0.14c-0.093,0.022-0.186,0.035-0.276,0.035h-3.475
						c-0.691,0-1.536-0.697-2.216-1.257c-0.567-0.467-0.977-0.805-1.324-0.805c-0.123,0-0.235,0.042-0.322,0.122
						c-0.649,0.595-0.809,5.904-0.809,6.639c0,3.038,2.11,4.781,5.789,4.781h1.085c3.679,0,5.789-1.743,5.789-4.781
						C140.919,26.839,140.758,21.53,140.11,20.935z"/>
					<path fill="#F8A226" d="M135.13,32.784h-1.085c-3.893,0-6.217-1.948-6.217-5.21c0-0.061,0.056-6.137,0.948-6.955
						c0.165-0.151,0.382-0.234,0.611-0.234c0.502,0,0.961,0.379,1.596,0.903c0.595,0.49,1.408,1.159,1.944,1.159h3.475
						c0.042,0,0.088-0.005,0.139-0.015c0.08-0.035,0.194-0.074,0.348-0.125c0.445-0.211,0.935-0.641,1.368-1.019
						c0.214-0.188,0.406-0.354,0.58-0.488c0.323-0.288,0.641-0.482,0.962-0.415c0.224,0.002,0.436,0.085,0.599,0.234
						c0.893,0.818,0.949,6.895,0.949,6.956C141.348,30.837,139.023,32.784,135.13,32.784z M129.387,21.242
						c-0.44,0.488-0.702,4.689-0.702,6.333c0,2.807,1.904,4.352,5.36,4.352h1.085c3.456,0,5.36-1.546,5.36-4.352
						c0-1.643-0.262-5.844-0.676-6.329l-0.118,0.009l-0.036-0.014c-0.03,0.022-0.117,0.078-0.277,0.22
						c-0.185,0.144-0.362,0.298-0.561,0.472c-0.474,0.415-1.012,0.885-1.574,1.154l-0.09,0.034c-0.073,0.024-0.221,0.071-0.283,0.1
						l-0.099,0.037c-0.131,0.031-0.254,0.046-0.374,0.046h-3.475c-0.844,0-1.755-0.751-2.488-1.354
						C130.017,21.601,129.581,21.242,129.387,21.242z"/>
				</g>
				<ellipse fill="#F8A226" cx="132.142" cy="25.778" rx="0.611" ry="0.649"/>
				<path fill="#F8A226" d="M136.114,29.805c-0.466,0-0.879-0.24-1.134-0.608c-0.255,0.368-0.669,0.608-1.134,0.608
					c-0.773,0-1.402-0.661-1.402-1.473c0-0.148,0.12-0.268,0.268-0.268s0.268,0.12,0.268,0.268c0,0.517,0.389,0.938,0.867,0.938
					s0.867-0.421,0.867-0.938c0-0.148,0.12-0.268,0.268-0.268s0.268,0.12,0.268,0.268c0,0.517,0.389,0.938,0.867,0.938
					s0.867-0.421,0.867-0.938c0-0.148,0.12-0.268,0.268-0.268s0.268,0.12,0.268,0.268C137.515,29.144,136.886,29.805,136.114,29.805
					z"/>
				<ellipse fill="#F8A226" cx="137.515" cy="25.724" rx="0.611" ry="0.649"/>
			</g>
		</g>
	</g>
	<g>
		<path fill="#FFFFFF" d="M159.206,21.979l-1.637,6.956c-0.287,1.218,0.332,2.486,1.47,3.016c1.88,0.874,5.181,1.917,10.223,1.917
			c5.019,0,8.311-1.033,10.189-1.901c1.158-0.535,1.771-1.821,1.458-3.057l-1.693-6.696c-1.31,0.735-4.291,1.914-9.954,1.914
			C163.666,24.127,160.566,22.787,159.206,21.979z"/>
		<g>
			<g>
				<path fill="#F8A226" d="M169.263,35.152c-5.278,0-8.767-1.108-10.765-2.036c-1.688-0.785-2.605-2.668-2.179-4.476l1.853-7.875
					c0.052-0.222,0.219-0.401,0.437-0.467c0.219-0.068,0.457-0.013,0.624,0.142c0.023,0.021,2.757,2.401,10.03,2.401
					c7.457,0,9.895-2.121,9.919-2.142c0.167-0.151,0.405-0.206,0.619-0.14c0.216,0.066,0.384,0.237,0.439,0.455l1.916,7.579
					c0.464,1.836-0.447,3.746-2.166,4.54C177.996,34.055,174.515,35.152,169.263,35.152z M159.206,21.979l-1.637,6.956
					c-0.287,1.218,0.332,2.486,1.47,3.016c1.88,0.874,5.181,1.917,10.223,1.917c5.019,0,8.311-1.033,10.189-1.901
					c1.158-0.535,1.771-1.821,1.458-3.057l-1.693-6.696c-1.31,0.735-4.291,1.914-9.954,1.914
					C163.666,24.127,160.566,22.787,159.206,21.979z"/>
				<g>
					<path fill="#F8A226" d="M169.901,27.345c-0.08,0-0.166-0.003-0.256-0.007c-0.183-0.007-0.391-0.007-0.574,0
						c-0.09,0.004-0.176,0.007-0.256,0.007c-0.192,0-0.412-0.016-0.59-0.138c-0.193-0.132-0.291-0.35-0.291-0.651
						c0-0.785,0.639-1.424,1.424-1.424c0.785,0,1.424,0.639,1.424,1.424C170.781,27.345,170.118,27.345,169.901,27.345z"/>
					<path fill="#F8A226" d="M165.161,29.202c-0.194,0-0.375-0.088-0.553-0.269c-0.267-0.271-0.413-0.629-0.41-1.009
						c0.002-0.38,0.153-0.737,0.424-1.004c0.268-0.265,0.623-0.41,1-0.41c0.384,0,0.744,0.15,1.013,0.424
						c0.181,0.183,0.267,0.368,0.262,0.565c-0.009,0.323-0.258,0.55-0.521,0.791c-0.068,0.062-0.139,0.126-0.209,0.196
						c-0.071,0.07-0.136,0.14-0.199,0.207C165.72,28.954,165.488,29.202,165.161,29.202z"/>
					<path fill="#F8A226" d="M173.365,29.202c-0.327,0-0.559-0.248-0.805-0.511c-0.062-0.067-0.128-0.137-0.199-0.207
						c-0.071-0.07-0.142-0.135-0.21-0.196c-0.264-0.241-0.513-0.468-0.521-0.79c-0.005-0.197,0.08-0.381,0.261-0.565
						c0.27-0.273,0.629-0.424,1.013-0.424c0.377,0,0.732,0.146,1,0.41c0.271,0.267,0.421,0.624,0.424,1.004
						c0.002,0.38-0.143,0.739-0.41,1.009C173.739,29.114,173.558,29.202,173.365,29.202z"/>
					<path fill="#F8A226" d="M170.857,32.579c-0.218,0-0.447-0.007-0.689-0.015c-0.523-0.017-1.098-0.017-1.621,0
						c-0.242,0.008-0.471,0.015-0.689,0.015c-0.458,0-0.978-0.03-1.367-0.251c-0.403-0.23-0.599-0.615-0.599-1.178
						c0-1.595,1.555-2.892,3.465-2.892s3.465,1.297,3.465,2.892C172.823,32.409,171.829,32.579,170.857,32.579z"/>
				</g>
				<path fill="#F8A226" d="M169.263,22.325c-3.8,0-10.232-0.643-10.232-3.055c0-2.412,6.432-3.055,10.232-3.055
					s10.232,0.643,10.232,3.055C179.495,21.682,173.063,22.325,169.263,22.325z M169.263,17.564c-5.495,0-8.705,1.12-8.885,1.72
					c0.18,0.573,3.391,1.692,8.885,1.692c5.494,0,8.705-1.12,8.885-1.72C177.968,18.684,174.758,17.564,169.263,17.564z"/>
			</g>
			<path fill="#F8A226" d="M178.896,17.287c0-1.196-0.97-2.166-2.166-2.166c-0.067,0-0.13,0.014-0.195,0.02
				c-0.324-1.292-1.49-2.251-2.882-2.251c-0.51,0-0.99,0.129-1.409,0.355c-0.32-1.9-1.802-3.338-3.584-3.338
				c-1.7,0-3.124,1.309-3.53,3.078c-0.288-0.118-0.602-0.184-0.932-0.184c-1.358,0-2.459,1.101-2.459,2.459
				c0,0.22,0.032,0.432,0.086,0.635c-1.107,0.143-1.965,1.079-1.965,2.224c0,0.204,0.036,0.397,0.086,0.585
				c-0.051,0.109-0.086,0.219-0.086,0.332c0,1.297,3.486,2.366,7.999,2.531c1.899,0.168,2.532,0.106,4.612-0.155
				c3.739-0.326,5.819-1.232,5.819-2.376c0-0.07-0.018-0.139-0.038-0.208C178.649,18.434,178.896,17.89,178.896,17.287z"/>
		</g>
	</g>
	<g>
		<path fill="#FFFFFF" d="M204.977,33.144h-2.197c-9.255,0-10.636-5.386-10.636-8.596c0-4.025,0.619-11.632,1.255-12.6
			c0.356,0.07,1.268,0.821,1.942,1.377c1.51,1.244,3.389,2.793,5.176,2.793h6.455c-0.714,1.187-1.382,3.541-0.717,5.239
			c0.818,2.088,2.925,2.947,5.143,2.947c1.998,0,3.317-0.996,4.174-1.819c0.026,0.742,0.04,1.441,0.04,2.063
			C215.613,27.758,214.231,33.144,204.977,33.144z"/>
		<g>
			<ellipse fill="#F8A226" cx="198.682" cy="20.911" rx="1.237" ry="1.314"/>
			<path fill="#F8A226" d="M206.603,28.376c-0.943,0-1.78-0.486-2.296-1.231c-0.516,0.746-1.354,1.231-2.296,1.231
				c-1.565,0-2.838-1.338-2.838-2.982c0-0.299,0.242-0.542,0.542-0.542s0.542,0.243,0.542,0.542c0,1.047,0.787,1.899,1.754,1.899
				s1.754-0.852,1.754-1.899c0-0.299,0.242-0.542,0.542-0.542s0.542,0.243,0.542,0.542c0,1.047,0.787,1.899,1.754,1.899
				c0.967,0,1.754-0.852,1.754-1.899c0-0.299,0.242-0.542,0.542-0.542s0.542,0.243,0.542,0.542
				C209.441,27.038,208.168,28.376,206.603,28.376z"/>
			<path fill="#F8A226" d="M215.058,11.106c-0.176-0.161-0.399-0.247-0.645-0.247c-0.027,0-0.055,0.008-0.082,0.01
				c-0.005-0.003-0.01-0.008-0.015-0.01c-0.314-0.12-0.762,0.18-1.305,0.661c-0.341,0.262-0.713,0.586-1.132,0.953
				c-0.903,0.791-1.96,1.714-2.989,2.207c-0.107,0.036-0.63,0.204-0.778,0.283c-0.189,0.045-0.376,0.07-0.558,0.07h-7.035
				c-1.398,0-3.111-1.411-4.487-2.546c-1.148-0.946-1.977-1.629-2.68-1.629c-0.25,0-0.475,0.085-0.651,0.247
				c-1.313,1.204-1.639,11.954-1.639,13.442c0,6.152,4.272,9.68,11.72,9.68h2.197c7.448,0,11.72-3.528,11.72-9.68
				C216.696,23.059,216.371,12.309,215.058,11.106z M204.977,33.144h-2.197c-9.255,0-10.636-5.386-10.636-8.596
				c0-4.025,0.619-11.632,1.255-12.6c0.356,0.07,1.268,0.821,1.942,1.377c1.51,1.244,3.389,2.793,5.176,2.793h6.455
				c-0.714,1.187-1.382,3.541-0.717,5.239c0.818,2.088,2.925,2.947,5.143,2.947c1.998,0,3.317-0.996,4.174-1.819
				c0.026,0.742,0.04,1.441,0.04,2.063C215.613,27.758,214.231,33.144,204.977,33.144z"/>
			<ellipse fill="#FFFFFF" cx="209.561" cy="20.8" rx="1.237" ry="1.314"/>
			<path fill="#F8A226" d="M206.781,28.09c0.275,0-0.4,1.774-2.497,1.774c-2.42,0-2.815-1.853-2.327-1.853
				c1.142,0,2.298-1.123,2.298-1.123S205.575,28.09,206.781,28.09z"/>
		</g>
		<ellipse fill="#FFFFFF" cx="209.561" cy="20.8" rx="1.237" ry="1.314"/>
	</g>
</g>
<g id="Layer_5">
	<g>
		<path fill="#FFFFFF" d="M30.326-54.222c-0.541,0-0.945,0.109-1.144,0.212c-2.395,1.238-5.1,2.469-7.965,3.772
			c-3.962,1.803-8.06,3.668-11.28,5.555c-0.592,0.347-1.236,1.395-1.242,1.871C8.617-36.791,8.608-32.118,8.6-27.598
			c-0.008,4.457-0.017,9.066-0.091,14.994c-0.016,1.255,0.186,2.103,0.598,2.52c0.408,0.413,1.207,0.613,2.443,0.613v1.5l0.084-1.5
			c4.947-0.036,11.311-0.056,18.4-0.056c6.758,0,13.539,0.018,19.13,0.043h0.001c1.195,0,1.986-0.212,2.397-0.63
			c0.408-0.417,0.605-1.204,0.585-2.341c-0.073-4.054-0.058-8.168-0.042-12.147c0.006-1.684,0.013-3.369,0.013-5.053l0.016-1.5
			c0.006-1.104,0.018-1.978,0.027-2.746c0.03-2.354,0.048-3.651-0.141-7.594c-0.056-1.152-0.904-2.816-1.683-3.297
			c-3.202-1.98-7.356-3.865-11.374-5.688c-2.665-1.209-5.182-2.351-7.418-3.511C31.329-54.102,30.895-54.222,30.326-54.222z"/>
		<path fill="#FFFFFF" d="M18.211-39.888c-1.026,1.139-1.639,10.94-1.639,14.775c0,6.548,4.441,10.155,12.506,10.155h2.532
			c8.064,0,12.506-3.606,12.506-10.155c0-3.834-0.612-13.635-1.578-14.767l-0.276,0.021l-0.084-0.032
			c-0.07,0.05-0.273,0.183-0.646,0.514c-0.432,0.335-0.845,0.695-1.309,1.102c-1.106,0.968-2.36,2.065-3.672,2.693l-0.21,0.079
			c-0.17,0.056-0.516,0.166-0.659,0.234l-0.23,0.086c-0.307,0.072-0.592,0.107-0.873,0.107h-8.107c-1.969,0-4.095-1.751-5.804-3.159
			C19.681-39.049,18.663-39.888,18.211-39.888z"/>
		<g>
			<path fill="#F8A226" d="M11.55-6.471c-2.108,0-3.563-0.478-4.578-1.505c-1.024-1.038-1.489-2.521-1.463-4.665
				C5.583-18.553,5.592-23.154,5.6-27.603c0.008-4.528,0.017-9.21,0.095-15.249c0.024-1.757,1.434-3.662,2.726-4.419
				c3.354-1.965,7.523-3.862,11.555-5.697c2.829-1.288,5.502-2.504,7.83-3.707c1.382-0.715,3.727-0.702,5.121,0.021
				c2.167,1.124,4.649,2.25,7.277,3.442c4.104,1.862,8.347,3.787,11.713,5.868c1.824,1.127,3.009,3.786,3.101,5.705
				c0.193,4.034,0.175,5.443,0.145,7.777c-0.015,1.076-0.031,2.36-0.031,4.207l-0.014,1.5c-0.002,1.188-0.007,2.376-0.011,3.565
				c-0.016,3.963-0.031,8.061,0.042,12.081c0.036,2-0.437,3.471-1.445,4.498c-1.01,1.027-2.479,1.527-4.493,1.527
				c-5.646-0.025-12.422-0.043-19.175-0.043c-7.083,0-13.438,0.02-18.379,0.056H11.55z M30.326-54.222
				c-0.541,0-0.945,0.109-1.144,0.212c-2.395,1.238-5.1,2.469-7.965,3.772c-3.962,1.803-8.06,3.668-11.28,5.555
				c-0.592,0.347-1.236,1.395-1.242,1.871C8.617-36.791,8.608-32.118,8.6-27.598c-0.008,4.457-0.017,9.066-0.091,14.994
				c-0.016,1.255,0.186,2.103,0.598,2.52c0.408,0.413,1.207,0.613,2.443,0.613v1.5l0.084-1.5c4.947-0.036,11.311-0.056,18.4-0.056
				c6.758,0,13.539,0.018,19.13,0.043h0.001c1.195,0,1.986-0.212,2.397-0.63c0.408-0.417,0.605-1.204,0.585-2.341
				c-0.073-4.054-0.058-8.168-0.042-12.147c0.006-1.684,0.013-3.369,0.013-5.053l0.016-1.5c0.006-1.104,0.018-1.978,0.027-2.746
				c0.03-2.354,0.048-3.651-0.141-7.594c-0.056-1.152-0.904-2.816-1.683-3.297c-3.202-1.98-7.356-3.865-11.374-5.688
				c-2.665-1.209-5.182-2.351-7.418-3.511C31.329-54.102,30.895-54.222,30.326-54.222z"/>
			<path fill="#F8A226" d="M6.875-50.983c-0.912,0-1.791-0.501-2.231-1.369c-0.625-1.231-0.133-2.736,1.098-3.361L26.52-66.259
				c2.398-1.348,5.26-1.382,7.687-0.09l20.742,9.893c1.246,0.595,1.775,2.087,1.18,3.333c-0.595,1.247-2.088,1.771-3.333,1.181
				l-20.796-9.919c-0.04-0.02-0.079-0.039-0.117-0.061c-0.912-0.495-2.037-0.482-2.936,0.035c-0.037,0.021-0.074,0.041-0.112,0.061
				L8.004-51.254C7.642-51.071,7.255-50.983,6.875-50.983z"/>
			<circle fill="#F8A226" cx="30.373" cy="-29.132" r="12.547"/>
			<g>
				<g>
					<path fill="#FFFFFF" d="M43.228-40.603c-0.203-0.186-0.46-0.284-0.743-0.284c-0.031,0-0.063,0.009-0.095,0.011
						c-0.006-0.003-0.012-0.009-0.018-0.011c-0.362-0.139-0.878,0.208-1.504,0.762c-0.393,0.302-0.822,0.676-1.304,1.098
						c-1.041,0.911-2.258,1.975-3.445,2.544c-0.123,0.042-0.726,0.235-0.897,0.327c-0.218,0.051-0.433,0.081-0.643,0.081h-8.108
						c-1.611,0-3.585-1.627-5.171-2.933c-1.323-1.09-2.278-1.878-3.089-1.878c-0.288,0-0.547,0.098-0.75,0.284
						c-1.514,1.388-1.888,13.776-1.888,15.49c0,7.089,4.923,11.155,13.506,11.155h2.531c8.583,0,13.506-4.066,13.506-11.155
						C45.116-26.828,44.741-39.216,43.228-40.603z"/>
					<path fill="#F8A226" d="M31.611-12.958h-2.532c-9.083,0-14.506-4.544-14.506-12.155c0-0.142,0.13-14.318,2.213-16.228
						c0.386-0.353,0.892-0.547,1.426-0.547c1.171,0,2.242,0.883,3.725,2.106c1.388,1.143,3.284,2.705,4.535,2.705h8.107
						c0.098,0,0.206-0.012,0.323-0.034c0.188-0.081,0.452-0.173,0.812-0.292c1.039-0.493,2.183-1.495,3.192-2.378
						c0.5-0.438,0.946-0.826,1.354-1.139c0.754-0.671,1.495-1.124,2.245-0.969c0.521,0.005,1.018,0.198,1.398,0.546
						c2.084,1.909,2.214,16.087,2.214,16.229C46.117-17.502,40.694-12.958,31.611-12.958z M18.211-39.888
						c-1.026,1.139-1.639,10.94-1.639,14.775c0,6.548,4.441,10.155,12.506,10.155h2.532c8.064,0,12.506-3.606,12.506-10.155
						c0-3.834-0.612-13.635-1.578-14.767l-0.276,0.021l-0.084-0.032c-0.07,0.05-0.273,0.183-0.646,0.514
						c-0.432,0.335-0.845,0.695-1.309,1.102c-1.106,0.968-2.36,2.065-3.672,2.693l-0.21,0.079c-0.17,0.056-0.516,0.166-0.659,0.234
						l-0.23,0.086c-0.307,0.072-0.592,0.107-0.873,0.107h-8.107c-1.969,0-4.095-1.751-5.804-3.159
						C19.681-39.049,18.663-39.888,18.211-39.888z"/>
				</g>
				<ellipse fill="#F8A226" cx="24.637" cy="-29.304" rx="1.425" ry="1.515"/>
				<path fill="#F8A226" d="M33.905-19.909c-1.086,0-2.051-0.56-2.646-1.419c-0.595,0.859-1.56,1.419-2.646,1.419
					c-1.803,0-3.27-1.542-3.27-3.436c0-0.345,0.279-0.624,0.624-0.624s0.624,0.279,0.624,0.624c0,1.207,0.907,2.188,2.022,2.188
					c1.115,0,2.022-0.981,2.022-2.188c0-0.345,0.279-0.624,0.624-0.624s0.624,0.279,0.624,0.624c0,1.207,0.907,2.188,2.022,2.188
					s2.022-0.981,2.022-2.188c0-0.345,0.279-0.624,0.624-0.624c0.345,0,0.624,0.279,0.624,0.624
					C37.175-21.451,35.708-19.909,33.905-19.909z"/>
				<ellipse fill="#F8A226" cx="37.175" cy="-29.431" rx="1.425" ry="1.515"/>
			</g>
		</g>
	</g>
</g>
<g id="Layer_6">
	<g>
		<path fill="#FFFFFF" d="M87.783-38.168L83.964-21.94c-0.669,2.841,0.774,5.8,3.431,7.036c4.387,2.04,12.087,4.472,23.852,4.472
			c11.709,0,19.391-2.411,23.771-4.435c2.701-1.248,4.132-4.248,3.402-7.133l-3.949-15.622c-3.056,1.716-10.012,4.465-23.225,4.465
			C98.187-33.157,90.956-36.284,87.783-38.168z"/>
		<g>
			<g>
				<path fill="#F8A226" d="M111.246-7.432c-12.313,0-20.455-2.584-25.117-4.751c-3.939-1.832-6.078-6.225-5.085-10.444
					l4.324-18.374c0.122-0.519,0.511-0.935,1.021-1.09c0.511-0.158,1.065-0.03,1.457,0.332c0.055,0.049,6.434,5.602,23.4,5.602
					c17.397,0,23.086-4.948,23.142-4.998c0.39-0.353,0.945-0.48,1.445-0.327c0.504,0.153,0.896,0.553,1.024,1.062l4.471,17.683
					c1.083,4.285-1.042,8.74-5.053,10.592C131.621-9.994,123.5-7.432,111.246-7.432z M87.783-38.168L83.964-21.94
					c-0.669,2.841,0.774,5.8,3.431,7.036c4.387,2.04,12.087,4.472,23.852,4.472c11.709,0,19.391-2.411,23.771-4.435
					c2.701-1.248,4.132-4.248,3.402-7.133l-3.949-15.622c-3.056,1.716-10.012,4.465-23.225,4.465
					C98.187-33.157,90.956-36.284,87.783-38.168z"/>
				<g>
					<path fill="#F8A226" d="M112.734-25.649c-0.187,0-0.387-0.008-0.598-0.016c-0.427-0.017-0.912-0.017-1.339,0
						c-0.21,0.008-0.411,0.016-0.598,0.016c-0.447,0-0.96-0.038-1.377-0.323c-0.45-0.307-0.678-0.818-0.678-1.518
						c0-1.832,1.491-3.322,3.322-3.322s3.322,1.491,3.322,3.322C114.789-25.649,113.242-25.649,112.734-25.649z"/>
					<path fill="#F8A226" d="M101.676-21.315c-0.452,0-0.874-0.205-1.291-0.627c-0.623-0.631-0.963-1.468-0.958-2.355
						c0.006-0.887,0.357-1.719,0.988-2.343c0.626-0.618,1.454-0.958,2.334-0.958c0.896,0,1.735,0.351,2.364,0.988
						c0.423,0.428,0.622,0.859,0.61,1.318c-0.02,0.753-0.601,1.284-1.217,1.845c-0.158,0.144-0.324,0.295-0.488,0.457
						c-0.165,0.163-0.318,0.327-0.464,0.483C102.981-21.895,102.439-21.315,101.676-21.315z"/>
					<path fill="#F8A226" d="M120.816-21.315c-0.763,0-1.305-0.579-1.879-1.192c-0.146-0.156-0.299-0.32-0.464-0.483
						c-0.165-0.163-0.331-0.314-0.489-0.458c-0.615-0.561-1.196-1.091-1.216-1.844c-0.012-0.459,0.188-0.89,0.61-1.318
						c0.629-0.638,1.469-0.988,2.364-0.988c0.879,0,1.708,0.34,2.334,0.958c0.632,0.623,0.983,1.455,0.988,2.343
						c0.006,0.887-0.334,1.724-0.958,2.355C121.691-21.521,121.268-21.315,120.816-21.315z"/>
					<path fill="#F8A226" d="M114.965-13.437c-0.509,0-1.042-0.017-1.607-0.036c-1.22-0.04-2.562-0.04-3.782,0
						c-0.565,0.018-1.098,0.036-1.607,0.036c-1.068,0-2.283-0.069-3.189-0.586c-0.941-0.536-1.398-1.435-1.398-2.748
						c0-3.72,3.627-6.747,8.085-6.747s8.085,3.027,8.085,6.747C119.552-13.833,117.233-13.437,114.965-13.437z"/>
				</g>
				<path fill="#F8A226" d="M111.246-37.36c-8.867,0-23.872-1.501-23.872-7.127c0-5.627,15.006-7.128,23.872-7.128
					s23.872,1.501,23.872,7.128C135.119-38.861,120.113-37.36,111.246-37.36z M111.246-48.468c-12.821,0-20.31,2.612-20.73,4.014
					c0.42,1.336,7.911,3.948,20.73,3.948s20.309-2.612,20.73-4.013C131.556-45.856,124.067-48.468,111.246-48.468z"/>
			</g>
			<path fill="#F8A226" d="M133.722-49.114c0-2.791-2.262-5.053-5.053-5.053c-0.156,0-0.303,0.032-0.456,0.046
				c-0.756-3.015-3.475-5.251-6.725-5.251c-1.19,0-2.309,0.3-3.288,0.828c-0.746-4.433-4.203-7.788-8.362-7.788
				c-3.966,0-7.288,3.053-8.236,7.181c-0.671-0.275-1.405-0.43-2.175-0.43c-3.168,0-5.736,2.568-5.736,5.736
				c0,0.513,0.074,1.008,0.2,1.482c-2.582,0.334-4.584,2.517-4.584,5.189c0,0.475,0.083,0.926,0.201,1.364
				c-0.119,0.254-0.201,0.511-0.201,0.774c0,3.026,8.133,5.52,18.663,5.906c4.431,0.393,5.907,0.247,10.76-0.362
				c8.724-0.76,13.577-2.874,13.577-5.545c0-0.164-0.042-0.325-0.088-0.485C133.146-46.438,133.722-47.708,133.722-49.114z"/>
		</g>
	</g>
</g>
<g id="Layer_7">
	<g>
		<path fill="#FFFFFF" d="M194.572-12.119h-5.125c-21.593,0-24.816-12.566-24.816-20.056c0-9.391,1.444-27.139,2.929-29.397
			c0.832,0.163,2.958,1.916,4.532,3.212c3.523,2.903,7.908,6.516,12.077,6.516h15.061c-1.665,2.768-3.224,8.261-1.672,12.223
			c1.909,4.872,6.825,6.875,12,6.875c4.662,0,7.738-2.323,9.739-4.243c0.06,1.731,0.093,3.363,0.093,4.814
			C219.388-24.685,216.165-12.119,194.572-12.119z"/>
		<g>
			<ellipse fill="#F8A226" cx="179.886" cy="-40.66" rx="2.886" ry="3.067"/>
			<path fill="#F8A226" d="M198.366-23.243c-2.199,0-4.153-1.134-5.357-2.873c-1.204,1.739-3.158,2.873-5.357,2.873
				c-3.65,0-6.621-3.121-6.621-6.957c0-0.698,0.565-1.264,1.264-1.264c0.698,0,1.264,0.566,1.264,1.264
				c0,2.443,1.836,4.43,4.093,4.43s4.093-1.987,4.093-4.43c0-0.698,0.565-1.264,1.264-1.264c0.698,0,1.264,0.566,1.264,1.264
				c0,2.443,1.836,4.43,4.093,4.43s4.093-1.987,4.093-4.43c0-0.698,0.565-1.264,1.264-1.264c0.699,0,1.264,0.566,1.264,1.264
				C204.987-26.364,202.017-23.243,198.366-23.243z"/>
			<path fill="#F8A226" d="M218.092-63.537c-0.411-0.376-0.932-0.576-1.504-0.576c-0.063,0-0.128,0.018-0.192,0.023
				c-0.012-0.006-0.024-0.018-0.036-0.023c-0.733-0.28-1.777,0.421-3.045,1.543c-0.795,0.611-1.664,1.368-2.641,2.224
				c-2.107,1.845-4.572,4-6.974,5.15c-0.249,0.085-1.47,0.475-1.816,0.661c-0.441,0.104-0.877,0.163-1.303,0.163h-16.415
				c-3.262,0-7.258-3.293-10.469-5.939c-2.678-2.207-4.613-3.802-6.253-3.802c-0.582,0-1.108,0.199-1.519,0.576
				c-3.064,2.809-3.823,27.89-3.823,31.361c0,14.352,9.966,22.584,27.344,22.584h5.125c17.377,0,27.344-8.231,27.344-22.584
				C221.915-35.648,221.156-60.729,218.092-63.537z M194.572-12.119h-5.125c-21.593,0-24.816-12.566-24.816-20.056
				c0-9.391,1.444-27.139,2.929-29.397c0.832,0.163,2.958,1.916,4.532,3.212c3.523,2.903,7.908,6.516,12.077,6.516h15.061
				c-1.665,2.768-3.224,8.261-1.672,12.223c1.909,4.872,6.825,6.875,12,6.875c4.662,0,7.738-2.323,9.739-4.243
				c0.06,1.731,0.093,3.363,0.093,4.814C219.388-24.685,216.165-12.119,194.572-12.119z"/>
			<ellipse fill="#FFFFFF" cx="205.268" cy="-40.918" rx="2.886" ry="3.067"/>
			<path fill="#F8A226" d="M198.782-23.91c0.642,0-0.932,4.139-5.825,4.139c-5.647,0-6.568-4.323-5.43-4.323
				c2.665,0,5.362-2.621,5.362-2.621S195.968-23.91,198.782-23.91z"/>
		</g>
		<ellipse fill="#FFFFFF" cx="205.268" cy="-40.918" rx="2.886" ry="3.067"/>
	</g>
</g>
</svg>
